<svg width="155" height="50" viewBox="0 0 155 50" fill="none" xmlns="http://www.w3.org/2000/svg">
<path d="M73.0453 25.4342C71.04 25.4342 69.2749 25.0048 67.7501 24.146C66.2253 23.2776 65.0379 22.057 64.1876 20.4842C63.3374 18.9017 62.9124 17.0443 62.9124 14.9118C62.9124 13.3583 63.1619 11.9351 63.6609 10.6421C64.1599 9.3491 64.8669 8.22981 65.7817 7.28419C66.6966 6.32893 67.7732 5.5956 69.0115 5.08419C70.2591 4.56314 71.6222 4.30261 73.1008 4.30261C74.6718 4.30261 76.0025 4.51007 77.093 4.92498C78.1834 5.33989 79.163 5.92366 80.0317 6.6763L77.9524 10.1934C77.3887 9.61445 76.7187 9.18024 75.9424 8.89077C75.1754 8.6013 74.3206 8.45656 73.378 8.45656C72.4169 8.45656 71.5529 8.60613 70.7859 8.90524C70.0281 9.20436 69.3811 9.63376 68.8452 10.1934C68.3185 10.7434 67.9118 11.414 67.6254 12.2052C67.3481 12.9868 67.2095 13.8697 67.2095 14.8539C67.2095 16.2048 67.459 17.3579 67.958 18.3131C68.4663 19.2588 69.1871 19.9872 70.1205 20.4987C71.0631 21.0101 72.1859 21.2658 73.4889 21.2658C74.3946 21.2658 75.2817 21.121 76.1504 20.8316C77.0283 20.5421 77.8554 20.0789 78.6316 19.4421L80.5168 23.046C79.6019 23.7793 78.5299 24.3631 77.3009 24.7973C76.0719 25.222 74.6533 25.4342 73.0453 25.4342ZM91.5818 25.4342C90.1031 25.4342 88.7355 25.1688 87.4787 24.6381C86.2218 24.0977 85.1314 23.35 84.2073 22.3947C83.2831 21.4395 82.5623 20.3201 82.0449 19.0368C81.5365 17.7535 81.2825 16.3641 81.2825 14.8684C81.2825 13.3631 81.5365 11.9688 82.0449 10.6855C82.5623 9.40218 83.2831 8.28288 84.2073 7.32761C85.1314 6.37235 86.2218 5.62936 87.4787 5.09866C88.7355 4.56797 90.1031 4.30261 91.5818 4.30261C93.0604 4.30261 94.4235 4.57278 95.671 5.11314C96.9278 5.65349 98.0182 6.40613 98.9424 7.37103C99.8757 8.33594 100.601 9.46007 101.119 10.7434C101.636 12.0171 101.895 13.3921 101.895 14.8684C101.895 16.3641 101.636 17.7535 101.119 19.0368C100.601 20.3201 99.8757 21.4395 98.9424 22.3947C98.0182 23.35 96.9278 24.0977 95.671 24.6381C94.4235 25.1688 93.0604 25.4342 91.5818 25.4342ZM91.5818 21.4105C92.4412 21.4105 93.2359 21.2562 93.966 20.9473C94.696 20.6385 95.3337 20.1996 95.879 19.6302C96.4241 19.0513 96.8446 18.3614 97.1404 17.5605C97.4453 16.7596 97.5978 15.8622 97.5978 14.8684C97.5978 13.5464 97.3345 12.3982 96.8077 11.4237C96.281 10.4395 95.5647 9.67718 94.6591 9.13682C93.7534 8.59647 92.7277 8.3263 91.5818 8.3263C90.7316 8.3263 89.9368 8.48068 89.1976 8.78945C88.4674 9.09823 87.8298 9.53726 87.2847 10.1066C86.7486 10.6759 86.3282 11.3658 86.0232 12.1763C85.7275 12.9772 85.5797 13.8746 85.5797 14.8684C85.5797 16.1904 85.843 17.3434 86.3698 18.3276C86.8965 19.3022 87.6127 20.0596 88.5184 20.6C89.4239 21.1404 90.4451 21.4105 91.5818 21.4105ZM104.865 25V4.73682H108.969V21.0776H116.981V25H104.865ZM117.485 25L124.832 4.73682H129.503L136.961 25H132.345L130.834 20.6579H123.446L121.976 25H117.485ZM124.416 17.0395H129.836L127.091 9.4263L124.416 17.0395ZM138.953 25V4.73682H146.175C148.116 4.73682 149.668 5.17103 150.833 6.03945C152.006 6.89823 152.593 8.17191 152.593 9.86051C152.593 10.4877 152.463 11.0715 152.205 11.6118C151.945 12.1522 151.604 12.6298 151.179 13.0447C150.753 13.45 150.287 13.7684 149.779 14C150.833 14.3667 151.687 14.9987 152.344 15.896C153.009 16.7934 153.342 17.8741 153.342 19.1381C153.342 20.3154 153.059 21.343 152.496 22.221C151.932 23.0991 151.133 23.7842 150.098 24.2763C149.062 24.7588 147.828 25 146.397 25H138.953ZM143.056 21.7868H145.787C146.896 21.7868 147.723 21.5552 148.268 21.0921C148.813 20.6289 149.086 19.9293 149.086 18.9934C149.086 18.0864 148.818 17.3917 148.282 16.9092C147.745 16.4171 146.941 16.171 145.87 16.171H143.056V21.7868ZM143.056 13.1605H145.607C146.225 13.1605 146.757 13.0544 147.201 12.8421C147.653 12.6298 148 12.3259 148.24 11.9302C148.49 11.525 148.615 11.0377 148.615 10.4684C148.615 9.65788 148.346 9.03551 147.811 8.6013C147.284 8.16709 146.525 7.94998 145.537 7.94998H143.056V13.1605Z" fill="#202A44"/>
<path d="M69.9239 47.3684V35.1369H66.0225V32.6316H76.4566V35.1369H72.5551V47.3684H69.9239ZM89.3432 47.6842C88.2745 47.6842 87.2833 47.4912 86.3692 47.1053C85.4619 46.7122 84.6722 46.1684 84.0001 45.4737C83.328 44.779 82.8072 43.9649 82.4375 43.0316C82.0679 42.0983 81.883 41.0878 81.883 40C81.883 38.9053 82.0679 37.8912 82.4375 36.9579C82.8072 36.0246 83.328 35.2105 84.0001 34.5158C84.6722 33.8211 85.4619 33.2807 86.3692 32.8947C87.2833 32.5088 88.2745 32.3158 89.3432 32.3158C90.4051 32.3158 91.3897 32.5122 92.297 32.9053C93.2043 33.2983 93.994 33.8457 94.6661 34.5474C95.3383 35.2491 95.8625 36.0667 96.2388 37C96.6152 37.9263 96.8033 38.9263 96.8033 40C96.8033 41.0878 96.6152 42.0983 96.2388 43.0316C95.8625 43.9649 95.3383 44.779 94.6661 45.4737C93.994 46.1684 93.2043 46.7122 92.297 47.1053C91.3897 47.4912 90.4051 47.6842 89.3432 47.6842ZM89.3432 45.1053C90.0085 45.1053 90.6269 44.9859 91.1981 44.7474C91.7762 44.5017 92.2768 44.1579 92.7002 43.7158C93.1305 43.2667 93.4631 42.7299 93.6983 42.1053C93.9402 41.4737 94.0612 40.772 94.0612 40C94.0612 38.9684 93.8529 38.0701 93.4362 37.3053C93.0196 36.5404 92.455 35.9474 91.7425 35.5263C91.0301 35.1053 90.2303 34.8947 89.3432 34.8947C88.6711 34.8947 88.0495 35.0141 87.4781 35.2526C86.9069 35.4912 86.4062 35.8351 85.976 36.2842C85.5526 36.7333 85.2199 37.2701 84.9779 37.8947C84.7428 38.5193 84.6251 39.2211 84.6251 40C84.6251 41.0316 84.8301 41.9299 85.2401 42.6947C85.6568 43.4596 86.2214 44.0526 86.9337 44.4737C87.6462 44.8947 88.4493 45.1053 89.3432 45.1053ZM110.894 47.6842C109.826 47.6842 108.834 47.4912 107.92 47.1053C107.013 46.7122 106.223 46.1684 105.551 45.4737C104.879 44.779 104.358 43.9649 103.989 43.0316C103.619 42.0983 103.434 41.0878 103.434 40C103.434 38.9053 103.619 37.8912 103.989 36.9579C104.358 36.0246 104.879 35.2105 105.551 34.5158C106.223 33.8211 107.013 33.2807 107.92 32.8947C108.834 32.5088 109.826 32.3158 110.894 32.3158C111.956 32.3158 112.941 32.5122 113.848 32.9053C114.755 33.2983 115.545 33.8457 116.217 34.5474C116.889 35.2491 117.414 36.0667 117.79 37C118.166 37.9263 118.354 38.9263 118.354 40C118.354 41.0878 118.166 42.0983 117.79 43.0316C117.414 43.9649 116.889 44.779 116.217 45.4737C115.545 46.1684 114.755 46.7122 113.848 47.1053C112.941 47.4912 111.956 47.6842 110.894 47.6842ZM110.894 45.1053C111.56 45.1053 112.178 44.9859 112.749 44.7474C113.327 44.5017 113.828 44.1579 114.251 43.7158C114.681 43.2667 115.014 42.7299 115.249 42.1053C115.491 41.4737 115.612 40.772 115.612 40C115.612 38.9684 115.404 38.0701 114.987 37.3053C114.571 36.5404 114.006 35.9474 113.294 35.5263C112.581 35.1053 111.781 34.8947 110.894 34.8947C110.222 34.8947 109.601 35.0141 109.029 35.2526C108.458 35.4912 107.957 35.8351 107.527 36.2842C107.104 36.7333 106.771 37.2701 106.529 37.8947C106.294 38.5193 106.176 39.2211 106.176 40C106.176 41.0316 106.381 41.9299 106.791 42.6947C107.208 43.4596 107.773 44.0526 108.485 44.4737C109.197 44.8947 110 45.1053 110.894 45.1053ZM125.665 47.3684V32.6316H128.287V44.8632H134.275V47.3684H125.665ZM146.097 47.6842C145.089 47.6842 144.103 47.5333 143.143 47.2316C142.188 46.9228 141.381 46.4842 140.724 45.9158L141.994 43.8421C142.316 44.1509 142.702 44.4175 143.153 44.6421C143.603 44.8667 144.081 45.0421 144.585 45.1684C145.095 45.2878 145.603 45.3474 146.107 45.3474C146.946 45.3474 147.629 45.1859 148.154 44.8632C148.678 44.5333 148.94 44.0596 148.94 43.4421C148.94 42.9579 148.758 42.5544 148.396 42.2316C148.033 41.9017 147.363 41.593 146.389 41.3053L145.018 40.8947C143.64 40.4878 142.642 39.9438 142.024 39.2632C141.412 38.5754 141.107 37.7333 141.107 36.7368C141.107 36.0842 141.234 35.4878 141.49 34.9474C141.744 34.407 142.105 33.9404 142.569 33.5474C143.039 33.1543 143.593 32.8526 144.232 32.6421C144.87 32.4316 145.565 32.3263 146.319 32.3263C147.307 32.3263 148.224 32.4772 149.071 32.779C149.918 33.0737 150.61 33.4772 151.148 33.9895L149.847 36C149.565 35.7263 149.232 35.4878 148.849 35.2842C148.466 35.0807 148.053 34.9263 147.609 34.8211C147.166 34.7088 146.718 34.6526 146.268 34.6526C145.737 34.6526 145.273 34.7299 144.877 34.8842C144.48 35.0386 144.171 35.2596 143.95 35.5474C143.728 35.8351 143.617 36.1859 143.617 36.6C143.617 36.9017 143.69 37.1649 143.839 37.3895C143.992 37.6141 144.255 37.8211 144.625 38.0105C144.994 38.193 145.505 38.3859 146.157 38.5895L147.589 39.0316C148.94 39.4457 149.924 39.979 150.543 40.6316C151.16 41.2772 151.47 42.1193 151.47 43.1579C151.47 44.0491 151.255 44.8351 150.825 45.5158C150.394 46.1965 149.777 46.7299 148.97 47.1158C148.17 47.4947 147.212 47.6842 146.097 47.6842Z" fill="#FFBA4D"/>
<path d="M36.7296 3.94739H28.6379C27.246 3.94739 26.1176 5.12559 26.1176 6.57897V15.0278C26.1176 16.4812 27.246 17.6594 28.6379 17.6594H36.7296C38.1215 17.6594 39.2499 16.4812 39.2499 15.0278V6.57897C39.2499 5.12559 38.1215 3.94739 36.7296 3.94739Z" fill="#202A44"/>
<path d="M36.7296 18.8024H28.6379C27.246 18.8024 26.1176 19.9806 26.1176 21.4339V29.8828C26.1176 31.3361 27.246 32.5143 28.6379 32.5143H36.7296C38.1215 32.5143 39.2499 31.3361 39.2499 29.8828V21.4339C39.2499 19.9806 38.1215 18.8024 36.7296 18.8024Z" fill="#FFBA4D"/>
<path d="M36.7296 33.6564H28.6379C27.246 33.6564 26.1176 34.8346 26.1176 36.288V44.7368C26.1176 46.1902 27.246 47.3684 28.6379 47.3684H36.7296C38.1215 47.3684 39.2499 46.1902 39.2499 44.7368V36.288C39.2499 34.8346 38.1215 33.6564 36.7296 33.6564Z" fill="#202A44"/>
<path d="M25.2033 10.5263H13.8018V40.7895H0" stroke="#202A44" stroke-dasharray="3 3"/>
<path d="M42.8455 26.3158H52.2967V40.7895H61.748" stroke="#FFBA4D" stroke-linecap="round" stroke-dasharray="3 3"/>
</svg>
