<svg width="701" height="300" viewBox="0 0 701 300" fill="none" xmlns="http://www.w3.org/2000/svg">
<circle cx="689" cy="12" r="12" fill="#202A44"/>
<path d="M691.727 7.45445L689 10.1819L686.273 7.45445C685.938 7.11978 685.395 7.11978 685.06 7.45445L684.454 8.06054C684.12 8.39522 684.12 8.93805 684.454 9.27273L687.182 12.0001L684.454 14.7275C684.12 15.0622 684.12 15.6051 684.454 15.9397L685.06 16.5458C685.395 16.8805 685.938 16.8805 686.273 16.5458L689 13.8184L691.727 16.5458C692.062 16.8805 692.605 16.8805 692.94 16.5458L693.546 15.9397C693.88 15.6051 693.88 15.0622 693.546 14.7275L690.818 12.0001L693.546 9.27273C693.88 8.93805 693.88 8.39522 693.546 8.06054L692.94 7.45445C692.605 7.11978 692.062 7.11978 691.727 7.45445Z" fill="white"/>
<circle cx="18" cy="282" r="18" fill="#FFBA4D"/>
<path d="M25.7143 280.071H19.9286V274.286C19.9286 273.576 19.3528 273 18.6429 273H17.3571C16.6472 273 16.0714 273.576 16.0714 274.286V280.071H10.2857C9.57576 280.071 9 280.647 9 281.357V282.643C9 283.353 9.57576 283.929 10.2857 283.929H16.0714V289.714C16.0714 290.424 16.6472 291 17.3571 291H18.6429C19.3528 291 19.9286 290.424 19.9286 289.714V283.929H25.7143C26.4242 283.929 27 283.353 27 282.643V281.357C27 280.647 26.4242 280.071 25.7143 280.071Z" fill="#202A44"/>
</svg>
