<svg width="47" height="47" viewBox="0 0 47 47" fill="none" xmlns="http://www.w3.org/2000/svg">
<circle cx="23.5" cy="23.5" r="23.5" fill="#F6F8FB"/>
<path d="M24.2237 36.5217C25.9935 36.5217 27.429 35.1496 27.429 33.4565H21.0185C21.0185 35.1496 22.454 36.5217 24.2237 36.5217ZM35.016 29.3515C34.048 28.3572 32.2366 26.8615 32.2366 21.962C32.2366 18.2406 29.5069 15.2616 25.8261 14.5307V13.5326C25.8261 12.6863 25.1086 12 24.2237 12C23.3389 12 22.6213 12.6863 22.6213 13.5326V14.5307C18.9406 15.2616 16.2108 18.2406 16.2108 21.962C16.2108 26.8615 14.3995 28.3572 13.4314 29.3515C13.1308 29.6604 12.9975 30.0297 13 30.3913C13.0055 31.1768 13.6504 31.9239 14.6084 31.9239H33.839C34.797 31.9239 35.4424 31.1768 35.4474 30.3913C35.4499 30.0297 35.3166 29.66 35.016 29.3515Z" fill="black"/>
</svg>
