<svg width="25" height="28" viewBox="0 0 25 28" fill="none" xmlns="http://www.w3.org/2000/svg">
<path d="M1.375 15.6875C0.9625 15.6875 0.625 16.0672 0.625 16.5313V18.2188C0.625 18.6828 0.9625 19.0625 1.375 19.0625H6.625V15.6875H1.375ZM24.2969 6.03711L19.7078 0.869141C19.4969 0.631836 19.2109 0.5 18.9109 0.5H18.625V7.25H24.625V6.92832C24.625 6.59609 24.5078 6.27441 24.2969 6.03711ZM17.125 7.67188V0.5H7.75C7.12656 0.5 6.625 1.06426 6.625 1.76563V15.6875H12.625V12.2492C12.625 11.4951 13.4359 11.1207 13.9094 11.6533L18.3906 16.7422C18.7 17.0955 18.7 17.6598 18.3906 18.0078L13.9047 23.0914C13.4312 23.624 12.6203 23.2496 12.6203 22.4955V19.0625H6.625V26.2344C6.625 26.9357 7.12656 27.5 7.75 27.5H23.5C24.1234 27.5 24.625 26.9357 24.625 26.2344V8.9375H18.25C17.6312 8.9375 17.125 8.36797 17.125 7.67188Z" fill="#202A44"/>
</svg>
